<svg width="600" height="600" viewBox="0 0 600 600" fill="none" xmlns="http://www.w3.org/2000/svg">
<g clip-path="url(#clip0_3394_560)">
<path d="M304.6 470.84L276.52 537.4L256.76 567.56L238.04 579L223.48 577.96L214.12 576.92L205.8 565.48L200.6 559.24L201.64 547.8L205.8 528.04L196.44 531.16L190.2 533.24L178.76 528.04L170.44 524.92L165.24 510.36L162.12 502.04L166.28 485.4L188.12 429.24L240.12 303.4L272.36 235.8L312.92 206.68L326.44 197.32L329.56 185.88L332.68 174.44L330.6 163L324.36 129.72L344.12 54.84L361.8 26.76L380.52 16.36L395.08 18.44L403.4 19.48L410.68 30.92L415.88 38.2L413.8 51.72L408.6 69.4L422.12 68.36H428.36L439.8 77.72L446.04 82.92L449.16 93.32L451.24 103.72L437.72 148.44L389.88 265.96L353.48 340.84L330.6 360.6L319.16 362.68L308.76 363.72L290.04 352.28L289 346.04V339.8L274.44 360.6L266.12 405.32L254.68 442.76V441.72L286.92 431.32L297.32 430.28L304.6 435.48L311.88 441.72L309.8 450.04L304.6 470.84ZM238.04 83.96L112.2 387.64L79.96 455.24L70.6 465.64L59.16 466.68H50.84L45.64 459.4L38.36 449L37.32 437.56L55 375.16L50.84 374.12L52.92 368.92L57.08 355.4L79.96 299.24L157.96 109.96L178.76 62.12L191.24 50.68L192.28 52.76L208.92 35.08L218.28 29.88L230.76 30.92L240.12 31.96L244.28 39.24L248.44 49.64L246.36 59L238.04 83.96ZM307.72 113.08L286.92 149.48L265.08 181.72L259.88 195.24L251.56 231.64L241.16 275.32L180.84 420.92L149.64 492.68L145.48 499.96L135.08 504.12L128.84 506.2V499.96L130.92 480.2L131.96 476.04L129.88 477.08L124.68 479.16L125.72 473.96L130.92 454.2L163.16 375.16L272.36 111L299.4 47.56L313.96 31.96L321.24 41.32L318.12 51.72H323.32L325.4 64.2L321.24 82.92L307.72 113.08ZM268.2 102.68L148.6 391.8L119.48 457.32L113.24 467.72L105.96 471.88L100.76 473.96V468.76L102.84 449L105.96 442.76L102.84 444.84L103.88 438.6L107 420.92L137.16 349.16L235.96 108.92L252.6 70.44L260.92 53.8L275.48 40.28L274.44 45.48L283.8 50.68L282.76 56.92L268.2 102.68ZM23.8 178.6L60.2 107.88L77.88 98.52L84.12 96.44L83.08 102.68L82.04 108.92L96.6 79.8L121.56 57.96L130.92 52.76L147.56 51.72L154.84 56.92L162.12 69.4L155.88 88.12L61.24 315.88L44.6 356.44L32.12 374.12L15.48 378.28L4.04 363.72L1.96 304.44L20.68 248.28L23.8 239.96L12.36 238.92L13.4 227.48L23.8 178.6ZM528.2 208.76L493.88 296.12L463.72 346.04L445 359.56H430.44L421.08 360.6L412.76 353.32L404.44 346.04L403.4 339.8V323.16L413.8 291.96L412.76 288.84L409.64 280.52L413.8 267L429.4 228.52L479.32 108.92L489.72 86.04L495.96 75.64L503.24 72.52L514.68 71.48L516.76 80.84L518.84 89.16L515.72 100.6L505.32 128.68L504.28 131.8L505.32 132.84L520.92 143.24L530.28 157.8L528.2 208.76ZM564.6 250.36L547.96 305.48L534.44 330.44L512.6 339.8L502.2 330.44L503.24 322.12L506.36 303.4L530.28 245.16L540.68 226.44L550.04 224.36L559.4 201.48L572.92 182.76L573.96 193.16L561.48 226.44L564.6 250.36ZM577.08 297.16L576.04 281.56L583.32 269.08L588.52 263.88L597.88 275.32L595.8 280.52L589.56 296.12L577.08 297.16ZM422.12 467.72L393 534.28L371.16 565.48L338.92 579L326.44 580.04L318.12 573.8L308.76 567.56V561.32L309.8 544.68L320.2 517.64L318.12 503.08L339.96 443.8L362.84 399.08L376.36 389.72L388.84 398.04L386.76 410.52H400.28H408.6L417.96 417.8L425.24 423L427.32 432.36L428.36 443.8L422.12 467.72ZM481.4 464.6L463.72 508.28L452.28 528.04L440.84 541.56L432.52 540.52H421.08L420.04 529.08L419 517.64L425.24 496.84L447.08 449L454.36 436.52L467.88 424.04L469.96 419.88L483.48 410.52L479.32 421.96L488.68 423L489.72 432.36L490.76 443.8L481.4 464.6ZM497 472.92L519.88 421.96L534.44 417.8L533.4 424.04L535.48 421.96L544.84 411.56L562.52 416.76L563.56 423L564.6 437.56L559.4 450.04L537.56 481.24L527.16 491.64L514.68 494.76L506.36 488.52L507.4 482.28L508.44 478.12L497 481.24V472.92Z" fill="#6D1DE2"/>
</g>
<defs>
<clipPath id="clip0_3394_560">
<rect width="600" height="600" fill="white"/>
</clipPath>
</defs>
</svg>
